<mxfile host="app.diagrams.net" modified="2025-06-21T23:55:00.000Z" agent="5.0 (Windows NT 10.0; Win64; x64) AppleWebKit/537.36 (KHTML, like Gecko) Chrome/125.0.0.0 Safari/537.36" etag="LqB2n-gq1fL7rVw5q8w2" version="24.5.4" type="device">
  <diagram name="Page-1" id="A8-GzEBUWnBePfhZBa7i">
    <mxGraphModel dx="1434" dy="754" grid="1" gridSize="10" guides="1" tooltips="1" connect="1" arrows="1" fold="1" page="1" pageScale="1" pageWidth="850" pageHeight="1100" math="0" shadow="0">
      <root>
        <mxCell id="0" />
        <mxCell id="1" parent="0" />
        <mxCell id="2" value="Usuário (Browser / Postman)" style="shape=actor;whiteSpace=wrap;html=1;fontFamily=Helvetica;fontSize=12;" vertex="1" parent="1">
          <mxGeometry x="80" y="270" width="60" height="80" as="geometry" />
        </mxCell>
        <mxCell id="3" value="&lt;b&gt;Serviço de Segredos&lt;/b&gt;&lt;br&gt;Fastify - Porta 3000&lt;br&gt;&lt;i&gt;(Lógica de Negócio)&lt;/i&gt;" style="rounded=1;whiteSpace=wrap;html=1;fillColor=#dae8fc;strokeColor=#6c8ebf;fontFamily=Helvetica;fontSize=12;" vertex="1" parent="1">
          <mxGeometry x="270" y="360" width="160" height="90" as="geometry" />
        </mxCell>
        <mxCell id="4" value="&lt;b&gt;Serviço de Autenticação&lt;/b&gt;&lt;br&gt;Fastify - Porta 3001&lt;br&gt;&lt;i&gt;(Gerenciador de Identidade)&lt;/i&gt;" style="rounded=1;whiteSpace=wrap;html=1;fillColor=#d5e8d4;strokeColor=#82b366;fontFamily=Helvetica;fontSize=12;" vertex="1" parent="1">
          <mxGeometry x="270" y="160" width="160" height="90" as="geometry" />
        </mxCell>
        <mxCell id="5" value="&lt;b&gt;Banco de Dados&lt;/b&gt;&lt;br&gt;PostgreSQL em Docker&lt;br&gt;&lt;i&gt;(Porta 5432)&lt;/i&gt;" style="shape=cylinder3;whiteSpace=wrap;html=1;boundedLbl=1;backgroundOutline=1;size=15;fillColor=#e1d5e7;strokeColor=#9673a6;fontFamily=Helvetica;fontSize=12;" vertex="1" parent="1">
          <mxGeometry x="540" y="270" width="100" height="80" as="geometry" />
        </mxCell>
        <mxCell id="6" value="1. Requisição de Login/Cadastro/Google" style="edgeStyle=orthogonalEdgeStyle;rounded=0;orthogonalLoop=1;jettySize=auto;html=1;endArrow=classic;endFill=1;fontFamily=Helvetica;fontSize=11;" edge="1" parent="1" source="2" target="4">
          <mxGeometry relative="1" as="geometry">
            <Array as="points">
              <mxPoint x="180" y="310" />
              <mxPoint x="180" y="205" />
            </Array>
          </mxGeometry>
        </mxCell>
        <mxCell id="7" value="2. Retorna Token JWE" style="edgeStyle=orthogonalEdgeStyle;rounded=0;orthogonalLoop=1;jettySize=auto;html=1;endArrow=classic;endFill=1;fontFamily=Helvetica;fontSize=11;" edge="1" parent="1" source="4" target="2">
          <mxGeometry relative="1" as="geometry">
            <Array as="points">
              <mxPoint x="210" y="205" />
              <mxPoint x="210" y="310" />
            </Array>
          </mxGeometry>
        </mxCell>
        <mxCell id="8" value="3. Requisição para /segredos com Token JWE" style="edgeStyle=orthogonalEdgeStyle;rounded=0;orthogonalLoop=1;jettySize=auto;html=1;endArrow=classic;endFill=1;fontFamily=Helvetica;fontSize=11;" edge="1" parent="1" source="2" target="3">
          <mxGeometry relative="1" as="geometry">
            <Array as="points">
              <mxPoint x="180" y="310" />
              <mxPoint x="180" y="405" />
            </Array>
          </mxGeometry>
        </mxCell>
        <mxCell id="9" value="4. Validação do Token (API Interna)" style="edgeStyle=orthogonalEdgeStyle;rounded=0;orthogonalLoop=1;jettySize=auto;html=1;endArrow=classic;endFill=1;dashed=1;fontFamily=Helvetica;fontSize=11;" edge="1" parent="1" source="3" target="4">
          <mxGeometry relative="1" as="geometry" />
        </mxCell>
        <mxCell id="10" value="5. Resposta de Validação" style="edgeStyle=orthogonalEdgeStyle;rounded=0;orthogonalLoop=1;jettySize=auto;html=1;endArrow=classic;endFill=1;dashed=1;fontFamily=Helvetica;fontSize=11;" edge="1" parent="1" source="4" target="3">
          <mxGeometry relative="1" as="geometry" />
        </mxCell>
        <mxCell id="11" value="Acesso DB" style="edgeStyle=orthogonalEdgeStyle;rounded=0;orthogonalLoop=1;jettySize=auto;html=1;endArrow=classic;endFill=1;fontFamily=Helvetica;fontSize=11;" edge="1" parent="1" source="4" target="5">
          <mxGeometry relative="1" as="geometry" />
        </mxCell>
        <mxCell id="12" value="Acesso DB" style="edgeStyle=orthogonalEdgeStyle;rounded=0;orthogonalLoop=1;jettySize=auto;html=1;endArrow=classic;endFill=1;fontFamily=Helvetica;fontSize=11;" edge="1" parent="1" source="3" target="5">
          <mxGeometry relative="1" as="geometry" />
        </mxCell>
        <mxCell id="13" value="6. Retorna Dados" style="edgeStyle=orthogonalEdgeStyle;rounded=0;orthogonalLoop=1;jettySize=auto;html=1;endArrow=classic;endFill=1;fontFamily=Helvetica;fontSize=11;" edge="1" parent="1" source="3" target="2">
          <mxGeometry relative="1" as="geometry">
            <Array as="points">
              <mxPoint x="210" y="405" />
              <mxPoint x="210" y="310" />
            </Array>
          </mxGeometry>
        </mxCell>
      </root>
    </mxGraphModel>
  </diagram>
</mxfile>